<svg xmlns="http://www.w3.org/2000/svg" zoomAndPan="magnify" viewBox="0 0 1080 768" preserveAspectRatio="xMidYMid meet" version="1.0">
  <defs>
    <clipPath id="3_pq3-ntxWvFa">
      <path d="M27 662.586h63v57H27zm0 0" clip-rule="nonzero"/>
    </clipPath>
    <clipPath id="3_pq3-ntxWvFb">
      <path d="M971 118.262h109v233.25H971zm0 0" clip-rule="nonzero"/>
    </clipPath>
    <clipPath id="3_pq3-ntxWvFc">
      <path d="M0 351.594h76v111.75H0zm0 0" clip-rule="nonzero"/>
    </clipPath>
  </defs>
  <g clip-path="url(#3_pq3-ntxWvFa)">
    <path fill="#f01100" d="M69.305 662.703h-21.34a10.013 10.013 0 00-8.676 5.008l-10.668 18.488a10.023 10.023 0 000 10.02l10.668 18.484a10.017 10.017 0 008.676 5.012h21.34a10.01 10.01 0 008.675-5.012l10.672-18.484a10.023 10.023 0 000-10.02L77.98 667.711a10.008 10.008 0 00-8.675-5.008" fill-opacity="1" fill-rule="evenodd"/>
  </g>
  <g clip-path="url(#3_pq3-ntxWvFb)">
    <path fill="#38b6ff" d="M1142.79 118.715h-87.028a40.848 40.848 0 00-35.375 20.43l-43.512 75.386a40.869 40.869 0 000 40.86l43.512 75.386a40.84 40.84 0 0035.375 20.43h87.027a40.84 40.84 0 0035.375-20.43l43.516-75.386a40.869 40.869 0 000-40.86l-43.516-75.386a40.848 40.848 0 00-35.375-20.43" fill-opacity="1" fill-rule="evenodd"/>
  </g>
  <g clip-path="url(#3_pq3-ntxWvFc)">
    <path fill="#f09000" d="M35.363 351.809H-6.305a19.553 19.553 0 00-16.937 9.785l-20.836 36.094a19.574 19.574 0 000 19.562l20.836 36.098a19.558 19.558 0 0016.937 9.78h41.668c6.989 0 13.446-3.73 16.938-9.78l20.836-36.098a19.574 19.574 0 000-19.563L52.3 361.594a19.553 19.553 0 00-16.938-9.785" fill-opacity="1" fill-rule="evenodd"/>
  </g>
</svg>
