<svg xmlns="http://www.w3.org/2000/svg" zoomAndPan="magnify" viewBox="0 0 375 375" preserveAspectRatio="xMidYMid meet" version="1.0">
  <defs>
    <clipPath id="D8c_Nl4P8avba">
      <path d="M0 0h375v365.25H0zm0 0" clip-rule="nonzero"/>
    </clipPath>
  </defs>
  <g clip-path="url(#D8c_Nl4P8avba)">
    <path fill="#ff5309" d="M198.54 12.09c-97.306 0-176.462 79.156-176.462 176.46 0 35.005 10.281 67.669 27.973 95.188-16.48-20.566-28.125-45.062-33.57-70.691-6.954-33.266-4.235-68.496 8.316-100.102 6.277-15.8 14.82-30.695 25.254-44.226 10.734-13.383 23.511-24.875 37.426-34.93 28.199-19.734 62.597-30.469 97.68-31.754V.825c-8.848-.606-17.766-.759-26.614.452L145.238 2.79l-12.93 2.723c-17.238 4.613-34.171 11.265-49.445 21.02-15.347 9.6-29.031 21.695-40.902 35.382-11.566 13.984-21.168 29.637-28.504 46.344-7.031 16.86-11.039 34.855-12.777 53L0 175.02c.074 4.535.453 9.144.68 13.683.152 2.266.152 4.535.53 6.805l1.06 6.726c.832 4.461 1.132 9.075 2.417 13.457 8.317 35.536 27.52 68.348 54.512 92.465 3.477 2.95 6.653 6.2 10.356 8.848l10.965 8.016c7.71 4.687 15.347 9.601 23.664 13.152.984.531 1.964.91 2.949 1.363 26.687 16.254 57.988 25.555 91.406 25.555 97.3 0 176.461-79.16 176.461-176.465C375 91.246 295.84 12.09 198.54 12.09zm0 349.898c-24.196 0-47.255-4.988-68.196-13.988l12.246 3.027c4.387 1.207 8.922 1.434 13.308 2.192l6.653.98c2.27.153 4.535.23 6.726.305 4.54.074 9 .605 13.461.379l13.457-.758c4.535-.152 8.922-1.285 13.383-1.89l6.652-1.06c2.192-.374 4.383-1.132 6.5-1.663 4.313-1.207 8.696-2.192 13.004-3.63l12.63-4.76c4.234-1.513 8.09-3.856 12.171-5.747 32.055-16.102 58.367-42.64 75.38-73.867 8.237-15.801 14.288-32.66 17.917-50.047 3.098-17.465 3.703-35.309 2.04-52.926l-1.208.153c1.207 17.539.227 35.156-3.176 52.316-3.933 17.09-10.285 33.496-18.675 48.766-17.391 30.168-43.625 55.27-74.926 70.164-3.93 1.738-7.711 3.93-11.793 5.289l-12.172 4.386c-4.082 1.286-8.395 2.118-12.55 3.25-2.118.454-4.161 1.137-6.274 1.512l-6.43.91c-4.309.453-8.543 1.512-12.852 1.586l-12.93.531c-4.308.149-8.616-.457-12.925-.605-2.117-.152-4.313-.227-6.426-.453l-6.351-1.059c-4.235-.832-8.543-1.058-12.704-2.344l-12.472-3.328c-8.09-2.949-16.258-5.593-23.895-9.675-7.86-3.48-15.043-8.317-22.226-12.856l-10.282-7.71c-2.19-1.665-4.234-3.477-6.199-5.368-27.52-30.621-44.304-71.145-44.304-115.45 0-95.64 77.796-173.437 173.437-173.437 95.64 0 173.438 77.797 173.438 173.438 0 95.64-77.797 173.437-173.438 173.437zm0 0" fill-opacity="1" fill-rule="nonzero"/>
  </g>
</svg>
